<svg width="34" height="35" viewBox="0 0 34 35" fill="none" xmlns="http://www.w3.org/2000/svg">
<rect x="0.195312" y="0.469727" width="33.7163" height="33.7163" rx="5.36395" fill="white"/>
<path fill-rule="evenodd" clip-rule="evenodd" d="M5.55927 0.46875C2.59684 0.46875 0.195312 2.87027 0.195312 5.8327V28.8211C0.195312 31.7835 2.59684 34.185 5.55927 34.185H28.5476C31.5101 34.185 33.9116 31.7835 33.9116 28.8211V5.83271C33.9116 2.87027 31.5101 0.46875 28.5476 0.46875H5.55927ZM25.8517 20.0029C25.7288 20.4849 26.2543 20.851 26.563 20.461C26.7939 20.1691 27.0113 19.8499 27.2117 19.5031C29.0239 16.3661 28.1764 13.1512 26.2309 12.0279C25.977 11.8813 25.7016 11.7688 25.4106 11.6908C25.0349 11.5901 24.7864 12.01 24.9683 12.3539C25.7423 13.8171 26.1851 15.5151 26.1851 17.326C26.1851 18.2533 26.069 19.1511 25.8517 20.0029ZM10.6113 24.3829C10.5461 24.3121 10.4622 24.2613 10.3694 24.2356C8.49194 23.7148 6.69049 22.3344 5.51742 20.3037C3.42437 16.6805 4.12438 12.3596 7.08091 10.6526C8.14103 10.0406 9.34732 9.8477 10.5551 10.0191C10.7143 10.0417 10.8757 9.99086 10.9911 9.87895C12.6036 8.31461 14.7277 7.36435 17.0552 7.36435C19.3809 7.36435 21.5035 8.31316 23.1156 9.87537C23.231 9.98719 23.3924 10.038 23.5515 10.0153C24.76 9.8434 25.967 10.0361 27.0277 10.6485C29.9843 12.3555 30.6843 16.6764 28.5912 20.2996C27.4196 22.3278 25.6211 23.7074 23.746 24.2296C23.6533 24.2554 23.5695 24.3063 23.5044 24.3771C21.8527 26.1756 19.573 27.2876 17.0552 27.2876C14.5401 27.2876 12.2625 26.178 10.6113 24.3829ZM9.13986 12.358C9.32157 12.014 9.07305 11.5943 8.69735 11.695C8.4066 11.773 8.13144 11.8855 7.87776 12.032C5.93226 13.1552 5.08481 16.3702 6.89699 19.5072C7.09866 19.8563 7.31764 20.1774 7.55025 20.4708C7.85924 20.8605 8.38434 20.4939 8.26097 20.0121C8.04218 19.1576 7.9252 18.2567 7.9252 17.326C7.9252 15.5168 8.36722 13.8203 9.13986 12.358ZM23.3653 21.7229C25.3333 18.1142 24.4068 13.6254 21.7837 12.0021C20.3764 11.1312 18.653 11.1908 17.0538 11.9902C15.4545 11.1908 13.7311 11.1312 12.3238 12.0021C9.7007 13.6254 8.7742 18.1142 10.7422 21.7229C12.1753 24.3507 14.7481 25.7873 17.0538 25.7472C19.3594 25.7873 21.9322 24.3507 23.3653 21.7229ZM21.1113 17.4952C21.8726 17.2204 22.3275 16.5301 22.1273 15.9534C21.927 15.3766 21.1475 15.1318 20.3862 15.4066C19.6249 15.6813 19.17 16.3716 19.3702 16.9484C19.5704 17.5251 20.3499 17.7699 21.1113 17.4952ZM21.8899 15.877C21.6796 15.6474 21.1179 15.3528 20.4943 15.8823C20.4464 15.9229 20.4352 16.0025 20.4694 16.06C20.5036 16.1176 20.5701 16.1312 20.618 16.0906C21.1433 15.6446 21.5943 15.8986 21.7467 16.0651C21.7903 16.1127 21.8576 16.1091 21.8972 16.0572C21.9367 16.0053 21.9335 15.9246 21.8899 15.877ZM21.7681 16.4769C21.7853 16.6635 21.598 16.8333 21.3498 16.8561C21.1015 16.879 20.8863 16.7462 20.8692 16.5596C20.852 16.373 21.0393 16.2032 21.2876 16.1803C21.5358 16.1575 21.751 16.2902 21.7681 16.4769ZM14.1028 18.3093C15.0017 18.3093 15.7304 17.7682 15.7304 17.1006C15.7304 16.433 15.0017 15.8919 14.1028 15.8919C13.204 15.8919 12.4753 16.433 12.4753 17.1006C12.4753 17.7682 13.204 18.3093 14.1028 18.3093ZM15.4794 16.7586C15.3328 16.5108 14.8805 16.1375 14.2156 16.498C14.1646 16.5257 14.1394 16.5956 14.1593 16.6541C14.1793 16.7127 14.2369 16.7377 14.288 16.71C14.848 16.4064 15.2078 16.7219 15.3141 16.9016C15.3445 16.9529 15.4061 16.9625 15.4518 16.9231C15.4974 16.8836 15.5098 16.81 15.4794 16.7586ZM15.3734 17.4058C15.3734 17.5742 15.1942 17.7107 14.9731 17.7107C14.752 17.7107 14.5728 17.5742 14.5728 17.4058C14.5728 17.2374 14.752 17.1009 14.9731 17.1009C15.1942 17.1009 15.3734 17.2374 15.3734 17.4058ZM16.2111 15.3354C15.5406 14.8191 13.7891 13.7411 11.6941 14.8019C11.5291 14.8855 11.1612 15.2036 11.4433 15.5144C11.5446 15.6535 11.8382 15.778 12.0033 15.6944C13.7832 14.7931 15.254 15.3929 15.7392 15.7665C15.8825 15.8768 16.1042 15.8697 16.2346 15.7507C16.3649 15.6317 16.3544 15.4457 16.2111 15.3354ZM17.9072 16.1548C18.1771 15.1473 19.0824 12.8326 21.9036 12.8184C22.1259 12.8173 22.7189 12.9693 22.6745 13.5028C22.679 13.7267 22.4857 14.0488 22.2633 14.0499C19.8663 14.062 18.8801 15.6478 18.6848 16.3768C18.6272 16.592 18.4063 16.7169 18.1916 16.6556C17.9768 16.5943 17.8495 16.3701 17.9072 16.1548ZM20.6983 21.3159C19.9608 22.4048 17.9574 24.7393 14.8938 23.1029C14.6524 22.9739 14.0769 22.4381 14.3606 21.8037C14.4547 21.524 14.8065 21.2386 15.0479 21.3676C17.6509 22.758 19.4199 21.3731 19.9535 20.5852C20.1111 20.3525 20.4056 20.3275 20.6112 20.5293C20.8169 20.731 20.8558 21.0832 20.6983 21.3159ZM19.7568 8.97399C18.698 8.58711 16.0021 7.88448 13.3861 9.71873C13.1799 9.86326 12.7547 10.3354 13.2244 10.6047C13.4002 10.7327 13.8375 10.7865 14.0437 10.6419C16.1429 9.16999 17.0207 9.31426 18.9119 9.62507C19.023 9.64334 19.1377 9.66219 19.2563 9.68131C19.4825 9.76398 19.7477 9.61407 19.8967 9.4396C20.0457 9.26512 19.9831 9.05666 19.7568 8.97399Z" fill="#3058D0"/>
</svg>
